<?xml version="1.0"?>
<!DOCTYPE svg PUBLIC "-//W3C//DTD SVG 1.1//EN" "http://www.w3.org/Graphics/SVG/1.1/DTD/svg11.dtd">
<svg width="174.828mm" height="133.328mm" viewBox="0 0 174.828 133.328" xmlns="http://www.w3.org/2000/svg" version="1.1">
<g id="Part__Part2DObjectPython007" transform="translate(1.714000,1.714000) scale(1,-1)">
<circle cx="160.4" cy="-119.9" r="2.25" stroke="#f1f3f5" stroke-width="0.35 px" style="stroke-width:0.35;stroke-miterlimit:4;stroke-dasharray:none;stroke-linecap:square;fill:none"/>
<path id="Part__Part2DObjectPython007_w0001"  d="M 171.4 -129.9 L 171.4 0.0 L 159.8 0.0 L 159.8 -3.2 L 148.4 -3.2 L 148.4 0.0 L 137.0 0.0 L 137.0 -3.2 L 125.60000000000001 -3.2 L 125.60000000000001 0.0 L 114.2 0.0 L 114.2 -3.2 L 102.8 -3.2 L 102.8 0.0 L 91.4 0.0 L 91.4 -3.2 L 80.0 -3.2 L 80.0 0.0 L 68.6 0.0 L 68.6 -3.2 L 57.2 -3.2 L 57.2 0.0 L 45.8 0.0 L 45.8 -3.2 L 34.4 -3.2 L 34.4 0.0 L 23.0 0.0 L 23.0 -3.2 L 11.6 -3.2 L 11.6 0.0 L 0.0 0.0 L 0.0 -129.9 L 11.6 -129.9 L 11.6 -126.7 L 23.0 -126.7 L 23.0 -129.9 L 34.4 -129.9 L 34.4 -126.7 L 45.8 -126.7 L 45.8 -129.9 L 57.2 -129.9 L 57.2 -126.7 L 68.6 -126.7 L 68.6 -129.9 L 80.0 -129.9 L 80.0 -126.7 L 91.4 -126.7 L 91.4 -129.9 L 102.8 -129.9 L 102.8 -126.7 L 114.2 -126.7 L 114.2 -129.9 L 125.60000000000001 -129.9 L 125.60000000000001 -126.7 L 137.0 -126.7 L 137.0 -129.9 L 148.4 -129.9 L 148.4 -126.7 L 159.8 -126.7 L 159.8 -129.9 L 171.4 -129.9 " stroke="#f1f3f5" stroke-width="0.35 px" style="stroke-width:0.35;stroke-miterlimit:4;stroke-dasharray:none;stroke-linecap:square;fill:none;fill-opacity:1;fill-rule: evenodd"/>
<path id="Part__Part2DObjectPython007_w0002"  d="M 165.20000000000002 -26.8 L 165.20000000000002 -37.7 L 168.4 -37.7 L 168.4 -26.8 L 165.20000000000002 -26.8 " stroke="#f1f3f5" stroke-width="0.35 px" style="stroke-width:0.35;stroke-miterlimit:4;stroke-dasharray:none;stroke-linecap:square;fill:none;fill-opacity:1;fill-rule: evenodd"/>
<path id="Part__Part2DObjectPython007_w0003"  d="M 165.20000000000002 -5.0 L 165.20000000000002 -15.9 L 168.4 -15.9 L 168.4 -5.0 L 165.20000000000002 -5.0 " stroke="#f1f3f5" stroke-width="0.35 px" style="stroke-width:0.35;stroke-miterlimit:4;stroke-dasharray:none;stroke-linecap:square;fill:none;fill-opacity:1;fill-rule: evenodd"/>
<path id="Part__Part2DObjectPython007_w0004"  d="M 165.20000000000002 -48.6 L 165.20000000000002 -59.5 L 168.4 -59.5 L 168.4 -48.6 L 165.20000000000002 -48.6 " stroke="#f1f3f5" stroke-width="0.35 px" style="stroke-width:0.35;stroke-miterlimit:4;stroke-dasharray:none;stroke-linecap:square;fill:none;fill-opacity:1;fill-rule: evenodd"/>
<path id="Part__Part2DObjectPython007_w0005"  d="M 165.20000000000002 -70.4 L 165.20000000000002 -81.3 L 168.4 -81.3 L 168.4 -70.4 L 165.20000000000002 -70.4 " stroke="#f1f3f5" stroke-width="0.35 px" style="stroke-width:0.35;stroke-miterlimit:4;stroke-dasharray:none;stroke-linecap:square;fill:none;fill-opacity:1;fill-rule: evenodd"/>
<path id="Part__Part2DObjectPython007_w0006"  d="M 165.20000000000002 -92.2 L 165.20000000000002 -103.10000000000001 L 168.4 -103.10000000000001 L 168.4 -92.2 L 165.20000000000002 -92.2 " stroke="#f1f3f5" stroke-width="0.35 px" style="stroke-width:0.35;stroke-miterlimit:4;stroke-dasharray:none;stroke-linecap:square;fill:none;fill-opacity:1;fill-rule: evenodd"/>
<path id="Part__Part2DObjectPython007_w0007"  d="M 165.20000000000002 -114.0 L 165.20000000000002 -124.9 L 168.4 -124.9 L 168.4 -114.0 L 165.20000000000002 -114.0 " stroke="#f1f3f5" stroke-width="0.35 px" style="stroke-width:0.35;stroke-miterlimit:4;stroke-dasharray:none;stroke-linecap:square;fill:none;fill-opacity:1;fill-rule: evenodd"/>
<path id="Part__Part2DObjectPython007_w0008"  d="M 3.0 -5.0 L 3.0 -15.9 L 6.2 -15.9 L 6.2 -5.0 L 3.0 -5.0 " stroke="#f1f3f5" stroke-width="0.35 px" style="stroke-width:0.35;stroke-miterlimit:4;stroke-dasharray:none;stroke-linecap:square;fill:none;fill-opacity:1;fill-rule: evenodd"/>
<path id="Part__Part2DObjectPython007_w0009"  d="M 3.0 -26.8 L 3.0 -37.7 L 6.2 -37.7 L 6.2 -26.8 L 3.0 -26.8 " stroke="#f1f3f5" stroke-width="0.35 px" style="stroke-width:0.35;stroke-miterlimit:4;stroke-dasharray:none;stroke-linecap:square;fill:none;fill-opacity:1;fill-rule: evenodd"/>
<path id="Part__Part2DObjectPython007_w0010"  d="M 3.0 -48.6 L 3.0 -59.5 L 6.2 -59.5 L 6.2 -48.6 L 3.0 -48.6 " stroke="#f1f3f5" stroke-width="0.35 px" style="stroke-width:0.35;stroke-miterlimit:4;stroke-dasharray:none;stroke-linecap:square;fill:none;fill-opacity:1;fill-rule: evenodd"/>
<path id="Part__Part2DObjectPython007_w0011"  d="M 3.0 -70.4 L 3.0 -81.3 L 6.2 -81.3 L 6.2 -70.4 L 3.0 -70.4 " stroke="#f1f3f5" stroke-width="0.35 px" style="stroke-width:0.35;stroke-miterlimit:4;stroke-dasharray:none;stroke-linecap:square;fill:none;fill-opacity:1;fill-rule: evenodd"/>
<path id="Part__Part2DObjectPython007_w0012"  d="M 3.0 -92.2 L 3.0 -103.10000000000001 L 6.2 -103.10000000000001 L 6.2 -92.2 L 3.0 -92.2 " stroke="#f1f3f5" stroke-width="0.35 px" style="stroke-width:0.35;stroke-miterlimit:4;stroke-dasharray:none;stroke-linecap:square;fill:none;fill-opacity:1;fill-rule: evenodd"/>
<path id="Part__Part2DObjectPython007_w0013"  d="M 3.0 -114.0 L 3.0 -124.9 L 6.2 -124.9 L 6.2 -114.0 L 3.0 -114.0 " stroke="#f1f3f5" stroke-width="0.35 px" style="stroke-width:0.35;stroke-miterlimit:4;stroke-dasharray:none;stroke-linecap:square;fill:none;fill-opacity:1;fill-rule: evenodd"/>
<circle cx="11.0" cy="-119.9" r="2.25" stroke="#f1f3f5" stroke-width="0.35 px" style="stroke-width:0.35;stroke-miterlimit:4;stroke-dasharray:none;stroke-linecap:square;fill:none"/>
<circle cx="11.0" cy="-10.0" r="2.25" stroke="#f1f3f5" stroke-width="0.35 px" style="stroke-width:0.35;stroke-miterlimit:4;stroke-dasharray:none;stroke-linecap:square;fill:none"/>
<circle cx="160.4" cy="-10.0" r="2.25" stroke="#f1f3f5" stroke-width="0.35 px" style="stroke-width:0.35;stroke-miterlimit:4;stroke-dasharray:none;stroke-linecap:square;fill:none"/>
<path id="Part__Part2DObjectPython007_w0017"  d="M 11.6 -72.5 L 11.6 -75.7 L 23.0 -75.7 L 23.0 -72.5 L 11.6 -72.5 " stroke="#f1f3f5" stroke-width="0.35 px" style="stroke-width:0.35;stroke-miterlimit:4;stroke-dasharray:none;stroke-linecap:square;fill:none;fill-opacity:1;fill-rule: evenodd"/>
<path id="Part__Part2DObjectPython007_w0018"  d="M 34.4 -72.5 L 34.4 -75.7 L 45.8 -75.7 L 45.8 -72.5 L 34.4 -72.5 " stroke="#f1f3f5" stroke-width="0.35 px" style="stroke-width:0.35;stroke-miterlimit:4;stroke-dasharray:none;stroke-linecap:square;fill:none;fill-opacity:1;fill-rule: evenodd"/>
<path id="Part__Part2DObjectPython007_w0019"  d="M 57.2 -72.5 L 57.2 -75.7 L 68.6 -75.7 L 68.6 -72.5 L 57.2 -72.5 " stroke="#f1f3f5" stroke-width="0.35 px" style="stroke-width:0.35;stroke-miterlimit:4;stroke-dasharray:none;stroke-linecap:square;fill:none;fill-opacity:1;fill-rule: evenodd"/>
<path id="Part__Part2DObjectPython007_w0020"  d="M 80.0 -72.5 L 80.0 -75.7 L 91.4 -75.7 L 91.4 -72.5 L 80.0 -72.5 " stroke="#f1f3f5" stroke-width="0.35 px" style="stroke-width:0.35;stroke-miterlimit:4;stroke-dasharray:none;stroke-linecap:square;fill:none;fill-opacity:1;fill-rule: evenodd"/>
<path id="Part__Part2DObjectPython007_w0021"  d="M 102.8 -72.5 L 102.8 -75.7 L 114.2 -75.7 L 114.2 -72.5 L 102.8 -72.5 " stroke="#f1f3f5" stroke-width="0.35 px" style="stroke-width:0.35;stroke-miterlimit:4;stroke-dasharray:none;stroke-linecap:square;fill:none;fill-opacity:1;fill-rule: evenodd"/>
<path id="Part__Part2DObjectPython007_w0022"  d="M 125.60000000000001 -75.7 L 137.0 -75.7 L 137.0 -72.5 L 125.60000000000001 -72.5 L 125.60000000000001 -75.7 " stroke="#f1f3f5" stroke-width="0.35 px" style="stroke-width:0.35;stroke-miterlimit:4;stroke-dasharray:none;stroke-linecap:square;fill:none;fill-opacity:1;fill-rule: evenodd"/>
<path id="Part__Part2DObjectPython007_w0023"  d="M 148.4 -72.5 L 148.4 -75.7 L 159.8 -75.7 L 159.8 -72.5 L 148.4 -72.5 " stroke="#f1f3f5" stroke-width="0.35 px" style="stroke-width:0.35;stroke-miterlimit:4;stroke-dasharray:none;stroke-linecap:square;fill:none;fill-opacity:1;fill-rule: evenodd"/>
<path id="Part__Part2DObjectPython007_w0024"  d="M 76.9 -120.0 L 80.10000000000001 -120.0 L 80.10000000000001 -112.4 L 76.9 -112.4 L 76.9 -120.0 " stroke="#f1f3f5" stroke-width="0.35 px" style="stroke-width:0.35;stroke-miterlimit:4;stroke-dasharray:none;stroke-linecap:square;fill:none;fill-opacity:1;fill-rule: evenodd"/>
<path id="Part__Part2DObjectPython007_w0025"  d="M 76.9 -97.2 L 76.9 -104.8 L 80.10000000000001 -104.8 L 80.10000000000001 -97.2 L 76.9 -97.2 " stroke="#f1f3f5" stroke-width="0.35 px" style="stroke-width:0.35;stroke-miterlimit:4;stroke-dasharray:none;stroke-linecap:square;fill:none;fill-opacity:1;fill-rule: evenodd"/>
<path id="Part__Part2DObjectPython007_w0026"  d="M 76.9 -82.0 L 76.9 -89.6 L 80.10000000000001 -89.6 L 80.10000000000001 -82.0 L 76.9 -82.0 " stroke="#f1f3f5" stroke-width="0.35 px" style="stroke-width:0.35;stroke-miterlimit:4;stroke-dasharray:none;stroke-linecap:square;fill:none;fill-opacity:1;fill-rule: evenodd"/>
<title>b'Part__Part2DObjectPython007'</title>
</g>
</svg>