<?xml version="1.0"?>
<!DOCTYPE svg PUBLIC "-//W3C//DTD SVG 1.1//EN" "http://www.w3.org/Graphics/SVG/1.1/DTD/svg11.dtd">
<svg width="224.97120000000007mm" height="327.01120000000003mm" viewBox="0 0 224.97120000000007 327.01120000000003" xmlns="http://www.w3.org/2000/svg" version="1.1">
<g id="Part__Part2DObjectPython" transform="translate(2.205600,98.205600) scale(1,-1)">
<path id="Part__Part2DObjectPython_w0000"  d="M 20.0 -43.599999999999994 L 8.6 -43.599999999999994 L 8.6 -38.69999999999999 L 3.2 -38.69999999999999 L 3.2 -34.69999999999999 L 0.0 -34.69999999999999 L 0.0 -25.7 L 3.2 -25.700000000000003 L 3.2 -16.2 L 0.0 -16.2 L 0.0 -7.2 L 3.2 -7.200000000000003 L 3.2 -3.2 L 8.6 -3.2 L 8.6 0.0 L 20.0 0.0 L 20.0 -3.2 L 31.400000000000002 -3.2 L 31.400000000000002 0.0 L 42.800000000000004 0.0 L 42.800000000000004 -3.200000000000003 L 54.2 -3.200000000000003 L 54.2 0.0 L 65.60000000000001 0.0 L 65.60000000000001 -3.200000000000003 L 77.0 -3.200000000000003 L 77.0 0.0 L 88.4 0.0 L 88.4 -3.200000000000003 L 99.8 -3.200000000000003 L 99.8 0.0 L 111.2 0.0 L 111.2 -3.200000000000003 L 122.60000000000001 -3.200000000000003 L 122.60000000000001 0.0 L 134.0 0.0 L 134.0 -3.200000000000003 L 145.4 -3.200000000000003 L 145.4 0.0 L 156.8 0.0 L 156.8 -3.200000000000003 L 162.20000000000002 -3.200000000000003 L 162.20000000000002 -7.200000000000003 L 165.4 -7.200000000000003 L 165.4 -16.200000000000003 L 162.20000000000002 -16.2 L 162.20000000000002 -25.700000000000003 L 165.4 -25.700000000000003 L 165.4 -34.69999999999999 L 162.20000000000002 -34.7 L 162.20000000000002 -38.7 L 156.8 -38.7 L 156.8 -43.6 L 145.4 -43.6 L 145.4 -38.7 L 134.0 -38.7 L 134.0 -43.6 L 122.60000000000001 -43.6 L 122.60000000000001 -38.7 L 111.2 -38.7 L 111.2 -43.6 L 99.8 -43.6 L 99.8 -38.7 L 88.4 -38.7 L 88.4 -43.6 L 77.0 -43.6 L 77.0 -38.7 L 65.60000000000001 -38.7 L 65.60000000000001 -43.6 L 54.2 -43.6 L 54.2 -38.7 L 42.800000000000004 -38.7 L 42.800000000000004 -43.6 L 31.400000000000002 -43.6 L 31.400000000000002 -38.7 L 20.0 -38.69999999999999 L 20.0 -43.599999999999994 " stroke="#f1f3f5" stroke-width="0.35 px" style="stroke-width:0.35;stroke-miterlimit:4;stroke-dasharray:none;stroke-linecap:square;fill:none;fill-opacity:1;fill-rule: evenodd"/>
<path id="Part__Part2DObjectPython_w0001"  d="M 73.9 -7.200000000000003 L 73.9 -16.200000000000003 L 77.10000000000001 -16.200000000000003 L 77.10000000000001 -7.200000000000003 L 73.9 -7.200000000000003 " stroke="#f1f3f5" stroke-width="0.35 px" style="stroke-width:0.35;stroke-miterlimit:4;stroke-dasharray:none;stroke-linecap:square;fill:none;fill-opacity:1;fill-rule: evenodd"/>
<path id="Part__Part2DObjectPython_w0002"  d="M 73.9 -25.700000000000003 L 73.9 -34.69999999999999 L 77.10000000000001 -34.69999999999999 L 77.10000000000001 -25.700000000000003 L 73.9 -25.700000000000003 " stroke="#f1f3f5" stroke-width="0.35 px" style="stroke-width:0.35;stroke-miterlimit:4;stroke-dasharray:none;stroke-linecap:square;fill:none;fill-opacity:1;fill-rule: evenodd"/>
<title>b'Part__Part2DObjectPython'</title>
</g>
<g id="Part__Part2DObjectPython001" transform="translate(2.205600,98.205600) scale(1,-1)">
<path id="Part__Part2DObjectPython001_w0000"  d="M 3.2 -217.7 L 0.0 -217.7 L 0.0 -208.7 L 3.2 -208.7 L 3.2 -199.2 L 0.0 -199.2 L 0.0 -190.2 L 3.2 -190.2 L 3.2 -186.2 L 9.5 -186.2 L 9.5 -183.0 L 17.099999999999998 -183.0 L 17.099999999999998 -186.2 L 24.7 -186.2 L 24.7 -183.0 L 32.3 -183.0 L 32.3 -186.2 L 39.9 -186.2 L 39.9 -183.0 L 47.5 -183.0 L 47.5 -186.2 L 54.199999999999996 -186.2 L 54.199999999999996 -190.2 L 57.4 -190.2 L 57.4 -199.2 L 54.199999999999996 -199.2 L 54.199999999999996 -208.7 L 57.4 -208.7 L 57.4 -217.7 L 54.199999999999996 -217.7 L 54.199999999999996 -221.7 L 47.5 -221.7 L 47.5 -226.6 L 39.9 -226.6 L 39.9 -221.7 L 32.3 -221.7 L 32.3 -226.6 L 24.7 -226.6 L 24.7 -221.7 L 17.099999999999998 -221.7 L 17.099999999999998 -226.6 L 9.5 -226.6 L 9.5 -221.7 L 3.2 -221.7 L 3.2 -217.7 " stroke="#f1f3f5" stroke-width="0.35 px" style="stroke-width:0.35;stroke-miterlimit:4;stroke-dasharray:none;stroke-linecap:square;fill:none;fill-opacity:1;fill-rule: evenodd"/>
<title>b'Part__Part2DObjectPython001'</title>
</g>
<g id="Part__Part2DObjectPython002" transform="translate(2.205600,98.205600) scale(1,-1)">
<path id="Part__Part2DObjectPython002_w0000"  d="M 215.66 -181.0 L 180.2 -181.0 L 180.2 -173.0 L 177.0 -173.0 L 177.0 -162.10000000000002 L 180.20000000000002 -162.10000000000002 L 180.20000000000002 -151.2 L 177.0 -151.2 L 177.0 -140.3 L 180.20000000000002 -140.3 L 180.20000000000002 -129.4 L 177.0 -129.4 L 177.0 -118.5 L 180.20000000000002 -118.5 L 180.20000000000002 -107.6 L 177.00000000000003 -107.6 L 177.00000000000003 -96.69999999999999 L 180.20000000000002 -96.69999999999999 L 180.20000000000002 -85.80000000000001 L 177.00000000000003 -85.80000000000001 L 177.00000000000003 -74.89999999999998 L 180.20000000000002 -74.89999999999998 L 180.20000000000002 -64.0 L 177.00000000000003 -64.0 L 177.00000000000003 -53.099999999999994 L 180.20000000000005 -53.099999999999994 L 180.20000000000005 -45.099999999999994 L 215.66000000000003 -45.099999999999994 L 215.66000000000003 -53.10000000000001 L 220.56000000000003 -53.10000000000001 L 220.56000000000003 -64.00000000000001 L 215.66000000000003 -64.00000000000001 L 215.66000000000003 -74.9 L 220.56000000000003 -74.9 L 220.56000000000003 -85.80000000000001 L 215.66000000000003 -85.80000000000001 L 215.66000000000003 -96.70000000000002 L 220.56000000000003 -96.70000000000002 L 220.56 -107.60000000000001 L 215.66000000000003 -107.60000000000001 L 215.66000000000003 -118.5 L 220.56 -118.5 L 220.56 -129.4 L 215.66000000000003 -129.4 L 215.66 -140.3 L 220.56 -140.3 L 220.56 -151.20000000000002 L 215.66 -151.20000000000002 L 215.66 -162.10000000000002 L 220.56 -162.10000000000002 L 220.56 -173.0 L 215.66 -173.0 L 215.66 -181.0 " stroke="#f1f3f5" stroke-width="0.7 px" style="stroke-width:0.7;stroke-miterlimit:4;stroke-dasharray:none;stroke-linecap:square;fill:none;fill-opacity:1;fill-rule: evenodd"/>
<path id="Part__Part2DObjectPython002_w0001"  d="M 184.2 -178.0 L 193.2 -178.0 L 193.2 -174.8 L 184.2 -174.8 L 184.2 -178.0 " stroke="#f1f3f5" stroke-width="0.7 px" style="stroke-width:0.7;stroke-miterlimit:4;stroke-dasharray:none;stroke-linecap:square;fill:none;fill-opacity:1;fill-rule: evenodd"/>
<path id="Part__Part2DObjectPython002_w0002"  d="M 211.66 -178.0 L 211.66 -174.8 L 202.66 -174.8 L 202.66 -178.0 L 211.66 -178.0 " stroke="#f1f3f5" stroke-width="0.7 px" style="stroke-width:0.7;stroke-miterlimit:4;stroke-dasharray:none;stroke-linecap:square;fill:none;fill-opacity:1;fill-rule: evenodd"/>
<path id="Part__Part2DObjectPython002_w0003"  d="M 211.66000000000003 -51.29999999999998 L 211.66000000000003 -48.099999999999994 L 202.66000000000003 -48.099999999999994 L 202.66000000000003 -51.29999999999998 L 211.66000000000003 -51.29999999999998 " stroke="#f1f3f5" stroke-width="0.7 px" style="stroke-width:0.7;stroke-miterlimit:4;stroke-dasharray:none;stroke-linecap:square;fill:none;fill-opacity:1;fill-rule: evenodd"/>
<path id="Part__Part2DObjectPython002_w0004"  d="M 184.20000000000002 -51.29999999999998 L 193.20000000000002 -51.29999999999998 L 193.20000000000002 -48.099999999999994 L 184.20000000000002 -48.099999999999994 L 184.20000000000002 -51.29999999999998 " stroke="#f1f3f5" stroke-width="0.7 px" style="stroke-width:0.7;stroke-miterlimit:4;stroke-dasharray:none;stroke-linecap:square;fill:none;fill-opacity:1;fill-rule: evenodd"/>
<path id="Part__Part2DObjectPython002_w0005"  d="M 187.16 -164.10000000000002 A 1.5 1.5 0 1 1 190.16 -164.1L 190.16 -139.1 A 1.5 1.5 0 0 1 187.16 -139.1L 187.16 -164.1 " stroke="#f1f3f5" stroke-width="0.7 px" style="stroke-width:0.7;stroke-miterlimit:4;stroke-dasharray:none;stroke-linecap:square;fill:none;fill-opacity:1;fill-rule: evenodd"/>
<path id="Part__Part2DObjectPython002_w0006"  d="M 205.16 -164.10000000000002 A 1.5 1.5 0 0 1 208.16 -164.1L 208.16000000000003 -139.10000000000002 A 1.5 1.5 0 0 1 205.16 -139.1L 205.16 -164.10000000000002 " stroke="#f1f3f5" stroke-width="0.7 px" style="stroke-width:0.7;stroke-miterlimit:4;stroke-dasharray:none;stroke-linecap:square;fill:none;fill-opacity:1;fill-rule: evenodd"/>
<path id="Part__Part2DObjectPython002_w0007"  d="M 196.16 -164.10000000000002 A 1.5 1.5 0 0 1 199.16 -164.1L 199.16000000000003 -139.10000000000002 A 1.5 1.5 0 1 1 196.16 -139.1L 196.16 -164.1 " stroke="#f1f3f5" stroke-width="0.7 px" style="stroke-width:0.7;stroke-miterlimit:4;stroke-dasharray:none;stroke-linecap:square;fill:none;fill-opacity:1;fill-rule: evenodd"/>
<path id="Part__Part2DObjectPython002_w0008"  d="M 187.16000000000003 -87.0 A 1.5 1.5 0 0 1 190.16 -87L 190.16000000000003 -62.0 A 1.5 1.5 0 0 1 187.16 -62L 187.16000000000003 -87.0 " stroke="#f1f3f5" stroke-width="0.7 px" style="stroke-width:0.7;stroke-miterlimit:4;stroke-dasharray:none;stroke-linecap:square;fill:none;fill-opacity:1;fill-rule: evenodd"/>
<path id="Part__Part2DObjectPython002_w0009"  d="M 196.16000000000003 -87.0 A 1.5 1.5 0 0 1 199.16 -87L 199.16000000000003 -62.0 A 1.5 1.5 0 1 1 196.16 -62L 196.16000000000003 -87.0 " stroke="#f1f3f5" stroke-width="0.7 px" style="stroke-width:0.7;stroke-miterlimit:4;stroke-dasharray:none;stroke-linecap:square;fill:none;fill-opacity:1;fill-rule: evenodd"/>
<path id="Part__Part2DObjectPython002_w0010"  d="M 205.16000000000003 -87.0 A 1.5 1.5 0 0 1 208.16 -87L 208.16000000000003 -62.0 A 1.5 1.5 0 0 1 205.16 -62L 205.16000000000003 -87.0 " stroke="#f1f3f5" stroke-width="0.7 px" style="stroke-width:0.7;stroke-miterlimit:4;stroke-dasharray:none;stroke-linecap:square;fill:none;fill-opacity:1;fill-rule: evenodd"/>
<path id="Part__Part2DObjectPython002_w0011"  d="M 202.75 -111.3443 A 7.07986 7.07986 0 0 1 202.7 -124.454L 207.4997652045513 -124.46000000000001 A 6.87881 6.87881 0 0 1 207.55 -111.375L 202.75 -111.3443 " stroke="#f1f3f5" stroke-width="0.7 px" style="stroke-width:0.7;stroke-miterlimit:4;stroke-dasharray:none;stroke-linecap:square;fill:none;fill-opacity:1;fill-rule: evenodd"/>
<path id="Part__Part2DObjectPython002_w0012"  d="M 184.20000000000002 -105.5 L 193.20000000000002 -105.5 L 193.20000000000002 -102.30000000000001 L 184.20000000000002 -102.30000000000001 L 184.20000000000002 -105.5 " stroke="#f1f3f5" stroke-width="0.7 px" style="stroke-width:0.7;stroke-miterlimit:4;stroke-dasharray:none;stroke-linecap:square;fill:none;fill-opacity:1;fill-rule: evenodd"/>
<path id="Part__Part2DObjectPython002_w0013"  d="M 202.66000000000003 -105.5 L 211.66000000000003 -105.5 L 211.66000000000003 -102.5 L 202.66000000000003 -102.5 L 202.66000000000003 -105.5 " stroke="#f1f3f5" stroke-width="0.7 px" style="stroke-width:0.7;stroke-miterlimit:4;stroke-dasharray:none;stroke-linecap:square;fill:none;fill-opacity:1;fill-rule: evenodd"/>
<title>b'Part__Part2DObjectPython002'</title>
</g>
<g id="Part__Part2DObjectPython003" transform="translate(2.205600,98.205600) scale(1,-1)">
<path id="Part__Part2DObjectPython003_w0000"  d="M 208.7 -39.900000000000006 L 173.2 -39.900000000000006 L 173.2 -31.900000000000006 L 170.0 -31.900000000000006 L 170.0 -21.000000000000014 L 173.20000000000002 -21.000000000000014 L 173.20000000000002 -10.100000000000009 L 170.0 -10.100000000000009 L 170.0 0.799999999999983 L 173.20000000000002 0.799999999999983 L 173.20000000000002 11.699999999999989 L 170.0 11.699999999999989 L 170.0 22.599999999999994 L 173.20000000000002 22.599999999999994 L 173.20000000000002 33.499999999999986 L 170.00000000000003 33.499999999999986 L 170.00000000000003 44.39999999999999 L 173.20000000000002 44.39999999999999 L 173.20000000000002 55.3 L 170.00000000000003 55.3 L 170.00000000000003 66.19999999999999 L 173.20000000000002 66.19999999999999 L 173.20000000000002 77.1 L 170.00000000000003 77.1 L 170.00000000000003 88.0 L 173.20000000000002 88.0 L 173.20000000000005 96.0 L 208.70000000000005 96.0 L 208.70000000000005 87.99999999999999 L 213.60000000000002 87.99999999999999 L 213.60000000000002 77.09999999999998 L 208.70000000000005 77.09999999999998 L 208.70000000000002 66.19999999999997 L 213.60000000000002 66.19999999999997 L 213.60000000000002 55.29999999999998 L 208.70000000000002 55.29999999999998 L 208.70000000000002 44.39999999999998 L 213.60000000000002 44.39999999999998 L 213.60000000000002 33.49999999999997 L 208.70000000000002 33.49999999999997 L 208.70000000000002 22.599999999999987 L 213.60000000000002 22.599999999999987 L 213.60000000000002 11.699999999999982 L 208.70000000000002 11.699999999999982 L 208.70000000000002 0.799999999999983 L 213.60000000000002 0.799999999999983 L 213.60000000000002 -10.10000000000002 L 208.70000000000002 -10.100000000000016 L 208.70000000000002 -21.000000000000018 L 213.60000000000002 -21.00000000000002 L 213.6 -31.90000000000002 L 208.7 -31.90000000000002 L 208.7 -39.90000000000002 " stroke="#f1f3f5" stroke-width="0.7 px" style="stroke-width:0.7;stroke-miterlimit:4;stroke-dasharray:none;stroke-linecap:square;fill:none;fill-opacity:1;fill-rule: evenodd"/>
<path id="Part__Part2DObjectPython003_w0001"  d="M 177.2 -36.900000000000006 L 186.2 -36.900000000000006 L 186.2 -33.70000000000002 L 177.2 -33.70000000000002 L 177.2 -36.900000000000006 " stroke="#f1f3f5" stroke-width="0.7 px" style="stroke-width:0.7;stroke-miterlimit:4;stroke-dasharray:none;stroke-linecap:square;fill:none;fill-opacity:1;fill-rule: evenodd"/>
<path id="Part__Part2DObjectPython003_w0002"  d="M 204.7 -36.900000000000006 L 204.7 -33.70000000000002 L 195.7 -33.70000000000002 L 195.7 -36.900000000000006 L 204.7 -36.900000000000006 " stroke="#f1f3f5" stroke-width="0.7 px" style="stroke-width:0.7;stroke-miterlimit:4;stroke-dasharray:none;stroke-linecap:square;fill:none;fill-opacity:1;fill-rule: evenodd"/>
<path id="Part__Part2DObjectPython003_w0003"  d="M 204.70000000000005 89.79999999999998 L 204.70000000000005 93.0 L 195.70000000000002 93.0 L 195.70000000000002 89.79999999999998 L 204.70000000000005 89.79999999999998 " stroke="#f1f3f5" stroke-width="0.7 px" style="stroke-width:0.7;stroke-miterlimit:4;stroke-dasharray:none;stroke-linecap:square;fill:none;fill-opacity:1;fill-rule: evenodd"/>
<path id="Part__Part2DObjectPython003_w0004"  d="M 177.20000000000002 89.79999999999998 L 186.20000000000002 89.79999999999998 L 186.20000000000002 93.0 L 177.20000000000002 93.0 L 177.20000000000002 89.79999999999998 " stroke="#f1f3f5" stroke-width="0.7 px" style="stroke-width:0.7;stroke-miterlimit:4;stroke-dasharray:none;stroke-linecap:square;fill:none;fill-opacity:1;fill-rule: evenodd"/>
<path id="Part__Part2DObjectPython003_w0005"  d="M 180.20000000000002 -23.000000000000014 A 1.5 1.5 0 0 1 183.2 -23L 183.20000000000002 1.9999999999999858 A 1.5 1.5 0 0 1 180.2 2L 180.20000000000002 -23.000000000000014 " stroke="#f1f3f5" stroke-width="0.7 px" style="stroke-width:0.7;stroke-miterlimit:4;stroke-dasharray:none;stroke-linecap:square;fill:none;fill-opacity:1;fill-rule: evenodd"/>
<path id="Part__Part2DObjectPython003_w0006"  d="M 198.2 -23.000000000000014 A 1.5 1.5 0 0 1 201.2 -23L 201.20000000000002 1.9999999999999716 A 1.5 1.5 0 0 1 198.2 2L 198.2 -23.000000000000018 " stroke="#f1f3f5" stroke-width="0.7 px" style="stroke-width:0.7;stroke-miterlimit:4;stroke-dasharray:none;stroke-linecap:square;fill:none;fill-opacity:1;fill-rule: evenodd"/>
<path id="Part__Part2DObjectPython003_w0007"  d="M 189.2 -23.000000000000014 A 1.5 1.5 0 0 1 192.2 -23L 192.20000000000002 1.9999999999999716 A 1.5 1.5 0 0 1 189.2 2L 189.2 -23.000000000000014 " stroke="#f1f3f5" stroke-width="0.7 px" style="stroke-width:0.7;stroke-miterlimit:4;stroke-dasharray:none;stroke-linecap:square;fill:none;fill-opacity:1;fill-rule: evenodd"/>
<path id="Part__Part2DObjectPython003_w0008"  d="M 180.20000000000002 54.099999999999994 A 1.5 1.5 0 1 1 183.2 54.1L 183.20000000000002 79.1 A 1.5 1.5 0 1 1 180.2 79.1L 180.20000000000002 54.099999999999994 " stroke="#f1f3f5" stroke-width="0.7 px" style="stroke-width:0.7;stroke-miterlimit:4;stroke-dasharray:none;stroke-linecap:square;fill:none;fill-opacity:1;fill-rule: evenodd"/>
<path id="Part__Part2DObjectPython003_w0009"  d="M 189.20000000000002 54.099999999999994 A 1.5 1.5 0 0 1 192.2 54.1L 192.20000000000002 79.1 A 1.5 1.5 0 0 1 189.2 79.1L 189.20000000000002 54.099999999999994 " stroke="#f1f3f5" stroke-width="0.7 px" style="stroke-width:0.7;stroke-miterlimit:4;stroke-dasharray:none;stroke-linecap:square;fill:none;fill-opacity:1;fill-rule: evenodd"/>
<path id="Part__Part2DObjectPython003_w0010"  d="M 198.20000000000002 54.099999999999994 A 1.5 1.5 0 0 1 201.2 54.1L 201.20000000000002 79.1 A 1.5 1.5 0 0 1 198.2 79.1L 198.20000000000002 54.099999999999994 " stroke="#f1f3f5" stroke-width="0.7 px" style="stroke-width:0.7;stroke-miterlimit:4;stroke-dasharray:none;stroke-linecap:square;fill:none;fill-opacity:1;fill-rule: evenodd"/>
<path id="Part__Part2DObjectPython003_w0011"  d="M 177.20000000000002 38.8 L 186.20000000000002 38.8 L 186.20000000000002 35.599999999999994 L 177.20000000000002 35.599999999999994 L 177.20000000000002 38.8 " stroke="#f1f3f5" stroke-width="0.7 px" style="stroke-width:0.7;stroke-miterlimit:4;stroke-dasharray:none;stroke-linecap:square;fill:none;fill-opacity:1;fill-rule: evenodd"/>
<path id="Part__Part2DObjectPython003_w0012"  d="M 195.70000000000002 35.599999999999994 L 204.70000000000002 35.59999999999998 L 204.70000000000002 38.79999999999998 L 195.70000000000002 38.8 L 195.70000000000002 35.599999999999994 " stroke="#f1f3f5" stroke-width="0.7 px" style="stroke-width:0.7;stroke-miterlimit:4;stroke-dasharray:none;stroke-linecap:square;fill:none;fill-opacity:1;fill-rule: evenodd"/>
<title>b'Part__Part2DObjectPython003'</title>
</g>
<g id="Part__Part2DObjectPython004" transform="translate(2.205600,98.205600) scale(1,-1)">
<path id="Part__Part2DObjectPython004_w0000"  d="M 20.0 52.6 L 8.6 52.6 L 8.6 57.5 L 3.2 57.5 L 3.2 61.5 L 0.0 61.5 L 0.0 70.5 L 3.2 70.5 L 3.2 80.0 L 0.0 80.0 L 0.0 89.0 L 3.2 89.0 L 3.2 93.0 L 8.6 93.0 L 8.6 96.0 L 20.0 96.0 L 20.0 93.0 L 31.4 93.0 L 31.4 96.0 L 42.8 96.0 L 42.8 93.0 L 54.2 93.0 L 54.2 96.0 L 65.6 96.0 L 65.6 93.0 L 77.0 93.0 L 77.0 96.0 L 88.4 96.0 L 88.4 93.0 L 99.8 93.0 L 99.8 96.0 L 111.2 96.0 L 111.2 93.0 L 122.60000000000001 93.0 L 122.60000000000001 96.0 L 134.0 96.0 L 134.0 93.0 L 145.4 93.0 L 145.4 96.0 L 156.8 96.0 L 156.8 93.0 L 162.20000000000002 93.0 L 162.20000000000002 89.0 L 165.4 89.0 L 165.4 80.0 L 162.20000000000002 80.0 L 162.20000000000002 70.5 L 165.4 70.5 L 165.4 61.5 L 162.20000000000002 61.5 L 162.20000000000002 57.5 L 156.8 57.5 L 156.8 52.6 L 145.4 52.6 L 145.4 57.5 L 134.0 57.5 L 134.0 52.6 L 122.60000000000001 52.6 L 122.60000000000001 57.5 L 111.2 57.5 L 111.2 52.6 L 99.8 52.6 L 99.8 57.5 L 88.4 57.5 L 88.4 52.6 L 77.0 52.6 L 77.0 57.5 L 65.6 57.5 L 65.6 52.6 L 54.2 52.6 L 54.2 57.5 L 42.8 57.5 L 42.8 52.6 L 31.4 52.6 L 31.4 57.5 L 20.0 57.5 L 20.0 52.6 " stroke="#f1f3f5" stroke-width="0.35 px" style="stroke-width:0.35;stroke-miterlimit:4;stroke-dasharray:none;stroke-linecap:square;fill:none;fill-opacity:1;fill-rule: evenodd"/>
<path id="Part__Part2DObjectPython004_w0001"  d="M 27.1 86.0 A 1.5 1.5 0 1 1 27.1 83L 47.1 83.0 A 1.5 1.5 0 1 1 47.1 86L 27.1 86.0 " stroke="#f1f3f5" stroke-width="0.35 px" style="stroke-width:0.35;stroke-miterlimit:4;stroke-dasharray:none;stroke-linecap:square;fill:none;fill-opacity:1;fill-rule: evenodd"/>
<path id="Part__Part2DObjectPython004_w0002"  d="M 27.1 77.0 A 1.5 1.5 0 1 1 27.1 74L 47.1 74.0 A 1.5 1.5 0 0 1 47.1 77L 27.1 77.0 " stroke="#f1f3f5" stroke-width="0.35 px" style="stroke-width:0.35;stroke-miterlimit:4;stroke-dasharray:none;stroke-linecap:square;fill:none;fill-opacity:1;fill-rule: evenodd"/>
<path id="Part__Part2DObjectPython004_w0003"  d="M 27.1 68.0 A 1.5 1.5 0 0 1 27.1 65L 47.1 65.0 A 1.5 1.5 0 1 1 47.1 68L 27.1 68.0 " stroke="#f1f3f5" stroke-width="0.35 px" style="stroke-width:0.35;stroke-miterlimit:4;stroke-dasharray:none;stroke-linecap:square;fill:none;fill-opacity:1;fill-rule: evenodd"/>
<path id="Part__Part2DObjectPython004_w0004"  d="M 72.7 86.0 A 1.5 1.5 0 0 1 72.7 83L 92.7 83.0 A 1.5 1.5 0 1 1 92.7 86L 72.7 86.0 " stroke="#f1f3f5" stroke-width="0.35 px" style="stroke-width:0.35;stroke-miterlimit:4;stroke-dasharray:none;stroke-linecap:square;fill:none;fill-opacity:1;fill-rule: evenodd"/>
<path id="Part__Part2DObjectPython004_w0005"  d="M 72.7 77.0 A 1.5 1.5 0 0 1 72.7 74L 92.7 74.0 A 1.5 1.5 0 0 1 92.7 77L 72.7 77.0 " stroke="#f1f3f5" stroke-width="0.35 px" style="stroke-width:0.35;stroke-miterlimit:4;stroke-dasharray:none;stroke-linecap:square;fill:none;fill-opacity:1;fill-rule: evenodd"/>
<path id="Part__Part2DObjectPython004_w0006"  d="M 72.7 68.0 A 1.5 1.5 0 0 1 72.7 65L 92.7 65.0 A 1.5 1.5 0 0 1 92.7 68L 72.7 68.0 " stroke="#f1f3f5" stroke-width="0.35 px" style="stroke-width:0.35;stroke-miterlimit:4;stroke-dasharray:none;stroke-linecap:square;fill:none;fill-opacity:1;fill-rule: evenodd"/>
<path id="Part__Part2DObjectPython004_w0007"  d="M 118.3 86.0 A 1.5 1.5 0 1 1 118.3 83L 138.3 83.0 A 1.5 1.5 0 1 1 138.3 86L 118.3 86.0 " stroke="#f1f3f5" stroke-width="0.35 px" style="stroke-width:0.35;stroke-miterlimit:4;stroke-dasharray:none;stroke-linecap:square;fill:none;fill-opacity:1;fill-rule: evenodd"/>
<path id="Part__Part2DObjectPython004_w0008"  d="M 118.3 77.0 A 1.5 1.5 0 0 1 118.3 74L 138.3 74.0 A 1.5 1.5 0 1 1 138.3 77L 118.3 77.0 " stroke="#f1f3f5" stroke-width="0.35 px" style="stroke-width:0.35;stroke-miterlimit:4;stroke-dasharray:none;stroke-linecap:square;fill:none;fill-opacity:1;fill-rule: evenodd"/>
<path id="Part__Part2DObjectPython004_w0009"  d="M 118.3 68.0 A 1.5 1.5 0 0 1 118.3 65L 138.3 65.0 A 1.5 1.5 0 1 1 138.3 68L 118.3 68.0 " stroke="#f1f3f5" stroke-width="0.35 px" style="stroke-width:0.35;stroke-miterlimit:4;stroke-dasharray:none;stroke-linecap:square;fill:none;fill-opacity:1;fill-rule: evenodd"/>
<title>b'Part__Part2DObjectPython004'</title>
</g>
<g id="Part__Part2DObjectPython005" transform="translate(2.205600,98.205600) scale(1,-1)">
<path id="Part__Part2DObjectPython005_w0000"  d="M 20.0 4.400000000000006 L 8.6 4.400000000000006 L 8.6 9.299999999999997 L 3.2 9.299999999999997 L 3.2 13.299999999999997 L 0.0 13.299999999999997 L 0.0 22.3 L 3.2 22.299999999999997 L 3.2 31.8 L 0.0 31.8 L 0.0 40.8 L 3.2 40.8 L 3.2 44.8 L 8.6 44.8 L 8.6 48.0 L 20.0 48.0 L 20.0 44.8 L 31.4 44.8 L 31.4 48.0 L 42.8 48.0 L 42.8 44.8 L 54.2 44.8 L 54.2 48.0 L 65.6 48.0 L 65.6 44.8 L 77.0 44.8 L 77.0 48.0 L 88.4 48.0 L 88.4 44.8 L 99.8 44.8 L 99.8 48.0 L 111.2 48.0 L 111.2 44.8 L 122.60000000000001 44.8 L 122.60000000000001 48.0 L 134.0 48.0 L 134.0 44.8 L 145.4 44.8 L 145.4 48.0 L 156.8 48.0 L 156.8 44.8 L 162.20000000000002 44.8 L 162.20000000000002 40.8 L 165.4 40.8 L 165.4 31.799999999999997 L 162.20000000000002 31.8 L 162.20000000000002 22.299999999999997 L 165.4 22.299999999999997 L 165.4 13.299999999999997 L 162.20000000000002 13.299999999999997 L 162.20000000000002 9.299999999999997 L 156.8 9.299999999999997 L 156.8 4.399999999999999 L 145.4 4.399999999999999 L 145.4 9.299999999999997 L 134.0 9.299999999999997 L 134.0 4.399999999999999 L 122.60000000000001 4.399999999999999 L 122.60000000000001 9.299999999999997 L 111.2 9.299999999999997 L 111.2 4.399999999999999 L 99.8 4.399999999999999 L 99.8 9.299999999999997 L 88.4 9.299999999999997 L 88.4 4.399999999999999 L 77.0 4.399999999999999 L 77.0 9.299999999999997 L 65.6 9.299999999999997 L 65.6 4.399999999999999 L 54.2 4.399999999999999 L 54.2 9.299999999999997 L 42.8 9.299999999999997 L 42.8 4.399999999999999 L 31.4 4.399999999999999 L 31.4 9.299999999999997 L 20.0 9.299999999999997 L 20.0 4.400000000000006 " stroke="#f1f3f5" stroke-width="0.35 px" style="stroke-width:0.35;stroke-miterlimit:4;stroke-dasharray:none;stroke-linecap:square;fill:none;fill-opacity:1;fill-rule: evenodd"/>
<path id="Part__Part2DObjectPython005_w0001"  d="M 27.1 37.8 A 1.5 1.5 0 1 1 27.1 34.8L 47.1 34.8 A 1.5 1.5 0 1 1 47.1 37.8L 27.1 37.8 " stroke="#f1f3f5" stroke-width="0.35 px" style="stroke-width:0.35;stroke-miterlimit:4;stroke-dasharray:none;stroke-linecap:square;fill:none;fill-opacity:1;fill-rule: evenodd"/>
<path id="Part__Part2DObjectPython005_w0002"  d="M 27.1 28.799999999999997 A 1.5 1.5 0 1 1 27.1 25.8L 47.1 25.799999999999997 A 1.5 1.5 0 1 1 47.1 28.8L 27.1 28.8 " stroke="#f1f3f5" stroke-width="0.35 px" style="stroke-width:0.35;stroke-miterlimit:4;stroke-dasharray:none;stroke-linecap:square;fill:none;fill-opacity:1;fill-rule: evenodd"/>
<path id="Part__Part2DObjectPython005_w0003"  d="M 27.1 19.799999999999997 A 1.5 1.5 0 1 1 27.1 16.8L 47.1 16.799999999999997 A 1.5 1.5 0 0 1 47.1 19.8L 27.1 19.8 " stroke="#f1f3f5" stroke-width="0.35 px" style="stroke-width:0.35;stroke-miterlimit:4;stroke-dasharray:none;stroke-linecap:square;fill:none;fill-opacity:1;fill-rule: evenodd"/>
<path id="Part__Part2DObjectPython005_w0004"  d="M 118.3 37.8 A 1.5 1.5 0 0 1 118.3 34.8L 138.3 34.8 A 1.5 1.5 0 1 1 138.3 37.8L 118.3 37.8 " stroke="#f1f3f5" stroke-width="0.35 px" style="stroke-width:0.35;stroke-miterlimit:4;stroke-dasharray:none;stroke-linecap:square;fill:none;fill-opacity:1;fill-rule: evenodd"/>
<path id="Part__Part2DObjectPython005_w0005"  d="M 118.3 28.799999999999997 A 1.5 1.5 0 0 1 118.3 25.8L 138.3 25.799999999999997 A 1.5 1.5 0 1 1 138.3 28.8L 118.3 28.8 " stroke="#f1f3f5" stroke-width="0.35 px" style="stroke-width:0.35;stroke-miterlimit:4;stroke-dasharray:none;stroke-linecap:square;fill:none;fill-opacity:1;fill-rule: evenodd"/>
<path id="Part__Part2DObjectPython005_w0006"  d="M 118.3 19.799999999999997 A 1.5 1.5 0 1 1 118.3 16.8L 138.3 16.799999999999997 A 1.5 1.5 0 1 1 138.3 19.8L 118.3 19.8 " stroke="#f1f3f5" stroke-width="0.35 px" style="stroke-width:0.35;stroke-miterlimit:4;stroke-dasharray:none;stroke-linecap:square;fill:none;fill-opacity:1;fill-rule: evenodd"/>
<path id="Part__Part2DObjectPython005_w0007"  d="M 73.9 40.8 L 73.9 31.799999999999997 L 77.10000000000001 31.799999999999997 L 77.10000000000001 40.8 L 73.9 40.8 " stroke="#f1f3f5" stroke-width="0.35 px" style="stroke-width:0.35;stroke-miterlimit:4;stroke-dasharray:none;stroke-linecap:square;fill:none;fill-opacity:1;fill-rule: evenodd"/>
<path id="Part__Part2DObjectPython005_w0008"  d="M 73.9 22.299999999999997 L 73.9 13.299999999999997 L 77.10000000000001 13.299999999999997 L 77.10000000000001 22.299999999999997 L 73.9 22.299999999999997 " stroke="#f1f3f5" stroke-width="0.35 px" style="stroke-width:0.35;stroke-miterlimit:4;stroke-dasharray:none;stroke-linecap:square;fill:none;fill-opacity:1;fill-rule: evenodd"/>
<title>b'Part__Part2DObjectPython005'</title>
</g>
<g id="Part__Part2DObjectPython006" transform="translate(2.205600,98.205600) scale(1,-1)">
<circle cx="160.4" cy="-167.9" r="2.25" stroke="#f1f3f5" stroke-width="0.35 px" style="stroke-width:0.35;stroke-miterlimit:4;stroke-dasharray:none;stroke-linecap:square;fill:none"/>
<path id="Part__Part2DObjectPython006_w0001"  d="M 171.4 -177.89999999999998 L 171.4 -48.0 L 159.8 -48.0 L 159.8 -51.19999999999999 L 148.4 -51.19999999999999 L 148.4 -48.0 L 137.0 -48.0 L 137.0 -51.19999999999999 L 125.60000000000001 -51.19999999999999 L 125.60000000000001 -48.0 L 114.2 -48.0 L 114.2 -51.19999999999999 L 102.8 -51.19999999999999 L 102.8 -48.0 L 91.4 -48.0 L 91.4 -51.19999999999999 L 80.0 -51.19999999999999 L 80.0 -48.0 L 68.6 -48.0 L 68.6 -51.19999999999999 L 57.2 -51.19999999999999 L 57.2 -48.0 L 45.8 -48.0 L 45.8 -51.19999999999999 L 34.4 -51.19999999999999 L 34.4 -48.0 L 23.0 -48.0 L 23.0 -51.19999999999999 L 11.6 -51.19999999999999 L 11.6 -48.0 L 0.0 -48.0 L 0.0 -177.89999999999998 L 11.6 -177.89999999999998 L 11.6 -174.7 L 23.0 -174.7 L 23.0 -177.89999999999998 L 34.4 -177.89999999999998 L 34.4 -174.7 L 45.8 -174.7 L 45.8 -177.89999999999998 L 57.2 -177.89999999999998 L 57.2 -174.7 L 68.6 -174.7 L 68.6 -177.89999999999998 L 80.0 -177.89999999999998 L 80.0 -174.7 L 91.4 -174.7 L 91.4 -177.89999999999998 L 102.8 -177.89999999999998 L 102.8 -174.7 L 114.2 -174.7 L 114.2 -177.89999999999998 L 125.60000000000001 -177.89999999999998 L 125.60000000000001 -174.7 L 137.0 -174.7 L 137.0 -177.89999999999998 L 148.4 -177.89999999999998 L 148.4 -174.7 L 159.8 -174.7 L 159.8 -177.89999999999998 L 171.4 -177.89999999999998 " stroke="#f1f3f5" stroke-width="0.35 px" style="stroke-width:0.35;stroke-miterlimit:4;stroke-dasharray:none;stroke-linecap:square;fill:none;fill-opacity:1;fill-rule: evenodd"/>
<path id="Part__Part2DObjectPython006_w0002"  d="M 165.20000000000002 -74.80000000000001 L 165.20000000000002 -85.69999999999999 L 168.4 -85.69999999999999 L 168.4 -74.80000000000001 L 165.20000000000002 -74.80000000000001 " stroke="#f1f3f5" stroke-width="0.35 px" style="stroke-width:0.35;stroke-miterlimit:4;stroke-dasharray:none;stroke-linecap:square;fill:none;fill-opacity:1;fill-rule: evenodd"/>
<path id="Part__Part2DObjectPython006_w0003"  d="M 165.20000000000002 -53.0 L 165.20000000000002 -63.900000000000006 L 168.4 -63.900000000000006 L 168.4 -53.0 L 165.20000000000002 -53.0 " stroke="#f1f3f5" stroke-width="0.35 px" style="stroke-width:0.35;stroke-miterlimit:4;stroke-dasharray:none;stroke-linecap:square;fill:none;fill-opacity:1;fill-rule: evenodd"/>
<path id="Part__Part2DObjectPython006_w0004"  d="M 165.20000000000002 -96.6 L 165.20000000000002 -107.5 L 168.4 -107.5 L 168.4 -96.6 L 165.20000000000002 -96.6 " stroke="#f1f3f5" stroke-width="0.35 px" style="stroke-width:0.35;stroke-miterlimit:4;stroke-dasharray:none;stroke-linecap:square;fill:none;fill-opacity:1;fill-rule: evenodd"/>
<path id="Part__Part2DObjectPython006_w0005"  d="M 165.20000000000002 -118.4 L 165.20000000000002 -129.3 L 168.4 -129.3 L 168.4 -118.4 L 165.20000000000002 -118.4 " stroke="#f1f3f5" stroke-width="0.35 px" style="stroke-width:0.35;stroke-miterlimit:4;stroke-dasharray:none;stroke-linecap:square;fill:none;fill-opacity:1;fill-rule: evenodd"/>
<path id="Part__Part2DObjectPython006_w0006"  d="M 165.20000000000002 -140.2 L 165.20000000000002 -151.10000000000002 L 168.4 -151.10000000000002 L 168.4 -140.2 L 165.20000000000002 -140.2 " stroke="#f1f3f5" stroke-width="0.35 px" style="stroke-width:0.35;stroke-miterlimit:4;stroke-dasharray:none;stroke-linecap:square;fill:none;fill-opacity:1;fill-rule: evenodd"/>
<path id="Part__Part2DObjectPython006_w0007"  d="M 165.20000000000002 -162.0 L 165.20000000000002 -172.89999999999998 L 168.4 -172.89999999999998 L 168.4 -162.0 L 165.20000000000002 -162.0 " stroke="#f1f3f5" stroke-width="0.35 px" style="stroke-width:0.35;stroke-miterlimit:4;stroke-dasharray:none;stroke-linecap:square;fill:none;fill-opacity:1;fill-rule: evenodd"/>
<path id="Part__Part2DObjectPython006_w0008"  d="M 3.0 -53.0 L 3.0 -63.900000000000006 L 6.2 -63.900000000000006 L 6.2 -53.0 L 3.0 -53.0 " stroke="#f1f3f5" stroke-width="0.35 px" style="stroke-width:0.35;stroke-miterlimit:4;stroke-dasharray:none;stroke-linecap:square;fill:none;fill-opacity:1;fill-rule: evenodd"/>
<path id="Part__Part2DObjectPython006_w0009"  d="M 3.0 -74.80000000000001 L 3.0 -85.69999999999999 L 6.2 -85.69999999999999 L 6.2 -74.80000000000001 L 3.0 -74.80000000000001 " stroke="#f1f3f5" stroke-width="0.35 px" style="stroke-width:0.35;stroke-miterlimit:4;stroke-dasharray:none;stroke-linecap:square;fill:none;fill-opacity:1;fill-rule: evenodd"/>
<path id="Part__Part2DObjectPython006_w0010"  d="M 3.0 -96.6 L 3.0 -107.5 L 6.2 -107.5 L 6.2 -96.6 L 3.0 -96.6 " stroke="#f1f3f5" stroke-width="0.35 px" style="stroke-width:0.35;stroke-miterlimit:4;stroke-dasharray:none;stroke-linecap:square;fill:none;fill-opacity:1;fill-rule: evenodd"/>
<path id="Part__Part2DObjectPython006_w0011"  d="M 3.0 -118.4 L 3.0 -129.3 L 6.2 -129.3 L 6.2 -118.4 L 3.0 -118.4 " stroke="#f1f3f5" stroke-width="0.35 px" style="stroke-width:0.35;stroke-miterlimit:4;stroke-dasharray:none;stroke-linecap:square;fill:none;fill-opacity:1;fill-rule: evenodd"/>
<path id="Part__Part2DObjectPython006_w0012"  d="M 3.0 -140.2 L 3.0 -151.10000000000002 L 6.2 -151.10000000000002 L 6.2 -140.2 L 3.0 -140.2 " stroke="#f1f3f5" stroke-width="0.35 px" style="stroke-width:0.35;stroke-miterlimit:4;stroke-dasharray:none;stroke-linecap:square;fill:none;fill-opacity:1;fill-rule: evenodd"/>
<path id="Part__Part2DObjectPython006_w0013"  d="M 3.0 -162.0 L 3.0 -172.89999999999998 L 6.2 -172.89999999999998 L 6.2 -162.0 L 3.0 -162.0 " stroke="#f1f3f5" stroke-width="0.35 px" style="stroke-width:0.35;stroke-miterlimit:4;stroke-dasharray:none;stroke-linecap:square;fill:none;fill-opacity:1;fill-rule: evenodd"/>
<circle cx="11.0" cy="-167.9" r="2.25" stroke="#f1f3f5" stroke-width="0.35 px" style="stroke-width:0.35;stroke-miterlimit:4;stroke-dasharray:none;stroke-linecap:square;fill:none"/>
<circle cx="11.0" cy="-58.0" r="2.25" stroke="#f1f3f5" stroke-width="0.35 px" style="stroke-width:0.35;stroke-miterlimit:4;stroke-dasharray:none;stroke-linecap:square;fill:none"/>
<circle cx="160.4" cy="-58.0" r="2.25" stroke="#f1f3f5" stroke-width="0.35 px" style="stroke-width:0.35;stroke-miterlimit:4;stroke-dasharray:none;stroke-linecap:square;fill:none"/>
<path id="Part__Part2DObjectPython006_w0017"  d="M 11.4 -151.38 L 35.4 -151.38 L 35.4 -127.38 L 11.399999999999999 -127.38 L 11.4 -151.38 " stroke="#f1f3f5" stroke-width="0.35 px" style="stroke-width:0.35;stroke-miterlimit:4;stroke-dasharray:none;stroke-linecap:square;fill:none;fill-opacity:1;fill-rule: evenodd"/>
<path id="Part__Part2DObjectPython006_w0018"  d="M 46.4 -151.38 L 70.4 -151.38 L 70.4 -127.38 L 46.4 -127.38 L 46.4 -151.38 " stroke="#f1f3f5" stroke-width="0.35 px" style="stroke-width:0.35;stroke-miterlimit:4;stroke-dasharray:none;stroke-linecap:square;fill:none;fill-opacity:1;fill-rule: evenodd"/>
<path id="Part__Part2DObjectPython006_w0019"  d="M 76.9 -130.0 L 76.9 -137.60000000000002 L 80.10000000000001 -137.60000000000002 L 80.10000000000001 -130.0 L 76.9 -130.0 " stroke="#f1f3f5" stroke-width="0.35 px" style="stroke-width:0.35;stroke-miterlimit:4;stroke-dasharray:none;stroke-linecap:square;fill:none;fill-opacity:1;fill-rule: evenodd"/>
<path id="Part__Part2DObjectPython006_w0020"  d="M 76.9 -145.2 L 76.9 -152.8 L 80.10000000000001 -152.8 L 80.10000000000001 -145.2 L 76.9 -145.2 " stroke="#f1f3f5" stroke-width="0.35 px" style="stroke-width:0.35;stroke-miterlimit:4;stroke-dasharray:none;stroke-linecap:square;fill:none;fill-opacity:1;fill-rule: evenodd"/>
<path id="Part__Part2DObjectPython006_w0021"  d="M 76.9 -160.39999999999998 L 76.9 -168.0 L 80.10000000000001 -168.0 L 80.10000000000001 -160.39999999999998 L 76.9 -160.39999999999998 " stroke="#f1f3f5" stroke-width="0.35 px" style="stroke-width:0.35;stroke-miterlimit:4;stroke-dasharray:none;stroke-linecap:square;fill:none;fill-opacity:1;fill-rule: evenodd"/>
<path id="Part__Part2DObjectPython006_w0022"  d="M 11.6 -120.5 L 11.6 -123.69999999999999 L 23.0 -123.69999999999999 L 23.0 -120.5 L 11.6 -120.5 " stroke="#f1f3f5" stroke-width="0.35 px" style="stroke-width:0.35;stroke-miterlimit:4;stroke-dasharray:none;stroke-linecap:square;fill:none;fill-opacity:1;fill-rule: evenodd"/>
<path id="Part__Part2DObjectPython006_w0023"  d="M 34.4 -120.5 L 34.4 -123.69999999999999 L 45.8 -123.69999999999999 L 45.8 -120.5 L 34.4 -120.5 " stroke="#f1f3f5" stroke-width="0.35 px" style="stroke-width:0.35;stroke-miterlimit:4;stroke-dasharray:none;stroke-linecap:square;fill:none;fill-opacity:1;fill-rule: evenodd"/>
<path id="Part__Part2DObjectPython006_w0024"  d="M 57.2 -120.5 L 57.2 -123.69999999999999 L 68.6 -123.69999999999999 L 68.6 -120.5 L 57.2 -120.5 " stroke="#f1f3f5" stroke-width="0.35 px" style="stroke-width:0.35;stroke-miterlimit:4;stroke-dasharray:none;stroke-linecap:square;fill:none;fill-opacity:1;fill-rule: evenodd"/>
<path id="Part__Part2DObjectPython006_w0025"  d="M 80.0 -120.5 L 80.0 -123.69999999999999 L 91.4 -123.69999999999999 L 91.4 -120.5 L 80.0 -120.5 " stroke="#f1f3f5" stroke-width="0.35 px" style="stroke-width:0.35;stroke-miterlimit:4;stroke-dasharray:none;stroke-linecap:square;fill:none;fill-opacity:1;fill-rule: evenodd"/>
<path id="Part__Part2DObjectPython006_w0026"  d="M 102.8 -120.5 L 102.8 -123.69999999999999 L 114.2 -123.69999999999999 L 114.2 -120.5 L 102.8 -120.5 " stroke="#f1f3f5" stroke-width="0.35 px" style="stroke-width:0.35;stroke-miterlimit:4;stroke-dasharray:none;stroke-linecap:square;fill:none;fill-opacity:1;fill-rule: evenodd"/>
<path id="Part__Part2DObjectPython006_w0027"  d="M 125.60000000000001 -120.5 L 125.60000000000001 -123.69999999999999 L 137.0 -123.69999999999999 L 137.0 -120.5 L 125.60000000000001 -120.5 " stroke="#f1f3f5" stroke-width="0.35 px" style="stroke-width:0.35;stroke-miterlimit:4;stroke-dasharray:none;stroke-linecap:square;fill:none;fill-opacity:1;fill-rule: evenodd"/>
<path id="Part__Part2DObjectPython006_w0028"  d="M 148.4 -120.5 L 148.4 -123.69999999999999 L 159.8 -123.69999999999999 L 159.8 -120.5 L 148.4 -120.5 " stroke="#f1f3f5" stroke-width="0.35 px" style="stroke-width:0.35;stroke-miterlimit:4;stroke-dasharray:none;stroke-linecap:square;fill:none;fill-opacity:1;fill-rule: evenodd"/>
<title>b'Part__Part2DObjectPython006'</title>
</g>
</svg>